<svg width="18" height="31" viewBox="0 0 18 31" fill="none" xmlns="http://www.w3.org/2000/svg">
<path d="M12.9 5.33829C12.9 7.44764 11.1503 9.19123 8.95 9.19123C6.74971 9.19123 5 7.44764 5 5.33829C5 3.22895 6.74971 1.48535 8.95 1.48535C11.1503 1.48535 12.9 3.22895 12.9 5.33829Z" stroke="white" stroke-width="2"/>
<mask id="path-2-inside-1_255_1491" fill="white">
<path d="M16.7841 21.9226C17.453 21.945 18.0225 21.4192 17.9522 20.7536C17.8701 19.9746 17.6823 19.208 17.3924 18.4744C16.9534 17.3632 16.2894 16.3508 15.4404 15.4981C14.5914 14.6454 13.575 13.9701 12.4526 13.513C11.3302 13.0559 10.1249 12.8264 8.90959 12.8383C7.69423 12.8503 6.49394 13.1035 5.38111 13.5826C4.26827 14.0618 3.26596 14.7569 2.43462 15.6262C1.60328 16.4954 0.960139 17.5207 0.543989 18.6403C0.269107 19.3798 0.0970248 20.1503 0.0308795 20.9311C-0.0255789 21.5976 0.553942 22.1115 1.22184 22.0759C1.89176 22.0402 2.39352 21.4632 2.4851 20.7986C2.54812 20.3412 2.66125 19.8905 2.82328 19.4546C3.12726 18.6368 3.59704 17.8879 4.2043 17.253C4.81155 16.618 5.5437 16.1102 6.35657 15.7602C7.16944 15.4103 8.0462 15.2253 8.93396 15.2166C9.82172 15.2078 10.7021 15.3755 11.522 15.7094C12.3419 16.0433 13.0843 16.5365 13.7044 17.1594C14.3245 17.7822 14.8096 18.5218 15.1303 19.3334C15.3013 19.7663 15.4237 20.215 15.4961 20.6714C15.6011 21.3337 16.114 21.9001 16.7841 21.9226Z"/>
</mask>
<path d="M16.7841 21.9226C17.453 21.945 18.0225 21.4192 17.9522 20.7536C17.8701 19.9746 17.6823 19.208 17.3924 18.4744C16.9534 17.3632 16.2894 16.3508 15.4404 15.4981C14.5914 14.6454 13.575 13.9701 12.4526 13.513C11.3302 13.0559 10.1249 12.8264 8.90959 12.8383C7.69423 12.8503 6.49394 13.1035 5.38111 13.5826C4.26827 14.0618 3.26596 14.7569 2.43462 15.6262C1.60328 16.4954 0.960139 17.5207 0.543989 18.6403C0.269107 19.3798 0.0970248 20.1503 0.0308795 20.9311C-0.0255789 21.5976 0.553942 22.1115 1.22184 22.0759C1.89176 22.0402 2.39352 21.4632 2.4851 20.7986C2.54812 20.3412 2.66125 19.8905 2.82328 19.4546C3.12726 18.6368 3.59704 17.8879 4.2043 17.253C4.81155 16.618 5.5437 16.1102 6.35657 15.7602C7.16944 15.4103 8.0462 15.2253 8.93396 15.2166C9.82172 15.2078 10.7021 15.3755 11.522 15.7094C12.3419 16.0433 13.0843 16.5365 13.7044 17.1594C14.3245 17.7822 14.8096 18.5218 15.1303 19.3334C15.3013 19.7663 15.4237 20.215 15.4961 20.6714C15.6011 21.3337 16.114 21.9001 16.7841 21.9226Z" fill="white" stroke="white" stroke-width="3" mask="url(#path-2-inside-1_255_1491)"/>
</svg>
